<svg xmlns="http://www.w3.org/2000/svg" width="32.788" height="28.119" viewBox="0 0 32.788 28.119"><defs><style>.a{fill:#f47920;}</style></defs><g transform="translate(0 0)"><path class="a" d="M1.97,43.6a2.344,2.344,0,0,1,.406-.03H25.508l-.5-.235a4.692,4.692,0,0,1-1.325-.938L17.191,35.91a2.428,2.428,0,0,1-.34-3.108,2.346,2.346,0,0,1,3.519-.3L32.1,44.227a2.346,2.346,0,0,1,0,3.318l0,0L20.37,59.276a2.346,2.346,0,0,1-3.519-.235,2.428,2.428,0,0,1,.34-3.108l6.475-6.5a4.692,4.692,0,0,1,1.173-.856l.7-.317H2.505A2.428,2.428,0,0,1,.03,46.291,2.346,2.346,0,0,1,1.97,43.6Z" transform="translate(0 -31.842)"/></g></svg>