<svg xmlns="http://www.w3.org/2000/svg" width="15.969" height="15.968" viewBox="0 0 15.969 15.968"><defs><style>.a{fill:#f58220;}</style></defs><g transform="translate(0 -0.016)"><g transform="translate(0 0.016)"><path class="a" d="M9.743,8l5.971-5.971a.875.875,0,0,0,0-1.235L15.191.271a.876.876,0,0,0-1.235,0L7.985,6.242,2.014.271a.875.875,0,0,0-1.235,0L.256.794a.874.874,0,0,0,0,1.235L6.226,8,.256,13.971a.876.876,0,0,0,0,1.235l.523.523a.875.875,0,0,0,1.235,0L7.985,9.758l5.971,5.971a.867.867,0,0,0,.617.255h0a.867.867,0,0,0,.618-.255l.523-.523a.876.876,0,0,0,0-1.235Z" transform="translate(0 -0.016)"/></g></g></svg>